<svg width="73" height="73" viewBox="0 0 73 73" fill="none" xmlns="http://www.w3.org/2000/svg">
<circle cx="36.5" cy="36.5" r="35" stroke="#1370DD" stroke-width="3"/>
<path d="M36.1848 36.1132C42.5556 36.1132 47.719 30.9398 47.719 24.5566C47.719 18.1734 42.5556 13 36.1848 13C29.814 13 24.6506 18.1734 24.6506 24.5566C24.6506 30.9398 29.814 36.1132 36.1848 36.1132ZM44.2587 39.0023H42.7539C40.7534 39.9232 38.5277 40.4469 36.1848 40.4469C33.8419 40.4469 31.6252 39.9232 29.6157 39.0023H28.1109C21.4247 39.0023 16 44.4375 16 51.1367V54.8926C16 57.2852 17.9374 59.2264 20.3253 59.2264H52.0443C54.4322 59.2264 56.3696 57.2852 56.3696 54.8926V51.1367C56.3696 44.4375 50.945 39.0023 44.2587 39.0023Z" fill="#006CEA"/>
</svg>
